# Blender v2.63 (sub 0) OBJ File: 'aircraft.blend'
# www.blender.org
mtllib aircraft.mtl
o Cube
v -0.139727 -0.897375 -0.414906
v -0.139727 -0.897375 0.472323
v -1.697470 -0.897375 0.472323
v -1.281294 0.185421 0.295989
v -0.139726 -0.010145 -0.414906
v -0.139727 -0.010145 0.472323
v -1.281293 0.185421 -0.238572
v -1.697470 -0.010145 -0.414906
v 1.127744 -0.645911 -0.323322
v 1.127744 -0.645911 0.380740
v 1.127744 0.058151 -0.323322
v 1.127744 0.058151 0.380740
v -0.342744 0.185421 0.295989
v -1.697469 -0.897375 -0.414907
v -1.697470 -0.010145 0.472323
v 2.424722 0.127360 -0.193064
v -3.052498 -0.566354 0.276872
v -3.052498 -0.566354 -0.219457
v -3.052498 -0.070024 0.276872
v -3.052498 -0.070024 -0.219457
v 2.011381 0.069735 -0.238731
v -0.342743 0.185421 -0.238572
v -0.256557 -0.675567 0.472323
v -1.580639 -0.675567 0.472323
v -0.256557 -0.675567 -0.414906
v -1.580639 -0.675567 -0.414907
v -0.139727 -0.897375 4.274735
v -1.697470 -0.897375 4.274735
v -0.256558 -0.675568 4.274736
v -1.580640 -0.675568 4.274735
v -0.139726 -0.897374 -4.217319
v -1.697469 -0.897374 -4.217319
v -0.256557 -0.675566 -4.217319
v -1.580638 -0.675566 -4.217319
v 1.922808 -0.440858 -0.248517
v 1.922808 -0.440858 0.310164
v 1.922808 0.117823 -0.248517
v 1.922807 0.117823 0.310164
v 2.513295 -0.216619 -0.183278
v 2.513295 -0.216619 0.244926
v 2.513295 0.211585 -0.183278
v 2.513295 0.211585 0.244926
v 2.011381 0.069735 0.300379
v 2.424722 0.127360 0.254712
v 1.992400 0.117823 0.940067
v 2.582887 0.211585 0.874829
v 2.080973 0.069735 0.930281
v 2.494314 0.127360 0.884615
v 2.494315 0.127360 -0.822967
v 2.080973 0.069735 -0.868634
v 1.992400 0.117823 -0.878419
v 2.582888 0.211585 -0.813181
v 1.973813 0.137146 0.005169
v 1.973813 0.137146 0.056479
v 2.490059 0.232609 0.002496
v 2.490059 0.232609 0.059151
v 2.080153 0.643027 0.005169
v 2.080153 0.643027 0.056479
v 2.425492 0.662060 0.002496
v 2.425492 0.662060 0.059151
vt 0.262490 0.089891
vt 0.264232 0.084340
vt 0.258754 0.099600
vt 0.262322 0.139103
vt 0.261145 0.134488
vt 0.258922 0.127017
vt 0.261121 0.135445
vt 0.260949 0.135274
vt 0.260592 0.133697
vt 0.258749 0.122747
vt 0.253857 0.132643
vt 0.270695 0.164533
vt 0.261020 0.135789
vt 0.261010 0.135799
vt 0.261046 0.135777
vt 0.267473 0.078694
vt 0.267263 0.079421
vt 0.267288 0.077549
vt 0.261040 0.135795
vt 0.261015 0.135733
vt 0.261103 0.135813
vt 0.827887 0.435127
vt 0.830220 0.493897
vt 0.776156 0.522525
vt 0.281887 0.054464
vt 0.925415 0.438226
vt 0.957347 0.409365
vt 0.170136 0.081623
vt 0.157858 0.069187
vt 0.269275 0.075375
vt 0.260210 0.080055
vt 0.427210 0.350176
vt 0.567665 0.354403
vt 0.387947 0.787719
vt 0.247883 0.138679
vt 0.110919 0.696037
vt 0.260523 0.690648
vt 0.308691 0.692231
vt 0.085366 0.231418
vt 0.283578 0.233909
vt 0.353101 0.241829
vt 0.024000 0.233989
vt 0.059470 0.701831
vt 0.372276 0.345018
vt 0.615179 0.351001
vt 0.329101 0.783634
vt 0.842142 0.054464
vt 0.636156 0.786903
vt 0.261054 0.135592
vt 0.260343 0.135880
vt 0.261346 0.136294
vt 0.260995 0.135376
vt 0.261003 0.135379
vt 0.260946 0.135514
vt 0.928796 0.492239
vt 0.959230 0.521993
vt 0.261017 0.135432
vt 0.261016 0.135360
vt 0.261000 0.135421
vt 0.260990 0.135481
vt 0.260980 0.135503
vt 0.874175 0.820090
vt 0.801781 0.820091
vt 0.874175 0.743808
vt 0.261028 0.135771
vt 0.261023 0.135779
vt 0.746050 0.821373
vt 0.673656 0.821373
vt 0.673656 0.745091
vt 0.261032 0.135902
vt 0.748690 0.629654
vt 0.757916 0.668334
vt 0.710653 0.684433
vt 0.261003 0.135578
vt 0.748690 0.621855
vt 0.801263 0.630060
vt 0.760075 0.583754
vt 0.713791 0.565025
vt 0.689281 0.627983
vt 0.689282 0.620185
vt 0.260993 0.135617
vt 0.260985 0.135616
vt 0.259000 0.111960
vt 0.776156 0.405418
vt 0.579033 0.787719
vt 0.253718 0.074478
vt 0.839952 0.290554
vt 0.260985 0.135608
vt 0.801781 0.743808
vt 0.746050 0.745091
vt 0.261007 0.135630
vt 0.801263 0.621448
vn -0.000000 -0.000000 1.000000
vn 0.194605 -0.980882 0.000000
vn 0.088420 -0.000000 0.996083
vn 0.072069 -0.000000 0.997400
vn -0.053806 0.998551 -0.000000
vn 0.072070 0.000000 -0.997400
vn -0.472029 -0.880039 -0.052150
vn -1.000000 0.000000 0.000000
vn 0.109813 0.000000 -0.993952
vn -0.425295 0.905055 -0.000000
vn 0.000000 -1.000000 0.000000
vn -0.000000 0.669646 0.742681
vn -0.142764 -0.000000 0.989757
vn -0.142763 0.000000 -0.989757
vn -0.044147 0.999025 -0.000000
vn -0.237312 -0.971433 0.000000
vn -0.000000 1.000000 0.000000
vn 0.000000 0.000000 -1.000000
vn -0.884770 0.466028 -0.000000
vn 0.884770 0.466028 0.000000
vn 0.355015 -0.934861 0.000000
vn -0.074843 0.997195 -0.000000
vn 0.249736 -0.968314 0.000000
vn 0.093673 0.000000 -0.995603
vn 1.000000 0.000000 0.000000
vn -0.472027 -0.880040 0.052150
vn -0.354262 0.935146 -0.000000
vn 0.000000 0.669646 -0.742681
vn 0.693767 0.720199 0.000001
vn 0.109813 -0.000000 0.993952
vn 0.682744 -0.726754 -0.075430
vn -0.154955 0.987773 0.017120
vn 0.136429 -0.990535 -0.015073
vn 0.109814 -0.000001 -0.993952
vn -0.154955 0.987773 -0.017120
vn 0.682742 -0.726756 0.075431
vn 0.136429 -0.990535 0.015073
vn -0.007674 -0.001154 -0.999970
vn -0.181893 0.982573 0.038269
vn -0.055031 0.998485 0.000000
vn -0.007675 -0.001154 0.999970
vn -0.978613 0.205712 0.000000
vn 0.988886 0.148677 0.000000
vn 0.109814 0.000000 -0.993952
vn 0.000000 -0.000002 1.000000
vn -0.884770 0.466027 0.000000
vn 0.884770 0.466027 0.000000
vn 1.000000 0.000001 0.000001
vn -0.472026 -0.880041 0.052150
vn -0.354264 0.935145 0.000000
vn 0.109813 -0.000001 0.993952
vn 0.682744 -0.726753 -0.075431
vn -0.005386 0.001132 -0.999985
vn -0.141623 0.981508 0.128785
vn 0.670927 0.741523 0.000000
vn -0.181893 0.982573 -0.038269
vn 0.670923 0.741527 0.000001
vn -0.141623 0.981508 -0.128786
vn -0.005386 0.001132 0.999985
usemtl aircraftLayout.ppm
s off
f 15/1/1 3/2/1 24/3/1
f 9/4/2 10/5/2 2/6/2
f 36/7/3 38/8/3 12/9/3
f 10/5/4 12/9/4 6/10/4
f 5/11/5 6/10/5 12/9/5
f 1/12/6 5/11/6 9/4/6
f 51/13/7 50/14/7 37/15/7
f 17/16/8 19/17/8 20/18/8
f 16/19/9 41/20/9 39/21/9
f 4/22/10 7/23/10 8/24/10
f 1/12/11 2/6/11 14/25/11
f 13/26/12 4/22/12 6/27/12
f 27/28/11 28/29/11 3/2/11
f 3/2/13 15/1/13 17/16/13
f 18/30/14 20/18/14 8/31/14
f 15/1/15 8/31/15 19/17/15
f 17/16/16 18/30/16 14/25/16
f 33/32/17 34/33/17 25/34/17
f 5/11/18 1/12/18 25/35/18
f 29/36/1 30/37/1 28/38/1
f 23/39/17 24/40/17 30/37/17
f 24/40/19 3/41/19 30/37/19
f 2/42/20 23/39/20 27/43/20
f 31/44/18 32/45/18 34/33/18
f 25/34/20 1/46/20 31/44/20
f 1/12/11 14/25/11 32/47/11
f 34/33/19 32/45/19 14/48/19
f 39/21/21 40/49/21 36/7/21
f 11/50/22 12/9/22 37/15/22
f 35/51/23 36/7/23 10/5/23
f 9/4/24 11/50/24 35/51/24
f 39/21/25 41/20/25 40/49/25
f 38/8/26 43/52/26 47/53/26
f 37/15/27 38/8/27 54/54/27
f 22/55/17 7/23/17 13/26/17
f 5/56/28 8/24/28 7/23/28
f 22/55/29 13/26/29 6/27/29
f 43/52/30 38/8/30 36/7/30
f 46/57/30 45/58/30 48/59/30
f 44/60/31 42/61/31 46/57/31
f 42/62/32 38/63/32 46/64/32
f 48/59/33 47/53/33 43/52/33
f 51/13/34 52/65/34 49/66/34
f 37/67/35 41/68/35 52/69/35
f 49/66/36 52/65/36 41/20/36
f 50/14/37 49/66/37 21/70/37
f 57/71/38 59/72/38 55/73/38
f 56/74/39 54/54/39 38/8/39
f 57/71/40 58/75/40 59/76/40
f 60/77/41 58/75/41 56/78/41
f 53/79/42 54/80/42 58/75/42
f 59/81/43 60/82/43 56/74/43
f 6/10/1 15/1/1 24/3/1
f 2/6/1 6/10/1 23/83/1
f 6/10/1 24/3/1 23/83/1
f 1/12/2 9/4/2 2/6/2
f 10/5/3 36/7/3 12/9/3
f 2/6/4 10/5/4 6/10/4
f 11/50/5 5/11/5 12/9/5
f 5/11/6 11/50/6 9/4/6
f 50/14/7 21/70/7 37/15/7
f 18/30/8 17/16/8 20/18/8
f 21/70/44 16/19/44 39/21/44
f 37/15/44 21/70/44 35/51/44
f 21/70/44 39/21/44 35/51/44
f 15/84/10 4/22/10 8/24/10
f 2/6/11 3/2/11 14/25/11
f 4/22/12 15/84/12 6/27/12
f 2/6/11 27/28/11 3/2/11
f 15/1/13 19/17/13 17/16/13
f 14/25/14 18/30/14 8/31/14
f 8/31/15 20/18/15 19/17/15
f 3/2/16 17/16/16 14/25/16
f 34/33/17 26/85/17 25/34/17
f 8/31/18 5/11/18 25/35/18
f 14/25/18 8/31/18 26/86/18
f 8/31/18 25/35/18 26/86/18
f 27/43/45 29/36/45 28/38/45
f 29/36/17 23/39/17 30/37/17
f 3/41/46 28/38/46 30/37/46
f 23/39/20 29/36/20 27/43/20
f 33/32/18 31/44/18 34/33/18
f 33/32/47 25/34/47 31/44/47
f 31/87/11 1/12/11 32/47/11
f 26/85/19 34/33/19 14/48/19
f 35/51/21 39/21/21 36/7/21
f 12/9/22 38/8/22 37/15/22
f 9/4/23 35/51/23 10/5/23
f 11/50/24 37/15/24 35/51/24
f 41/20/48 42/61/48 40/49/48
f 45/58/49 38/8/49 47/53/49
f 53/88/50 37/15/50 54/54/50
f 7/23/17 4/22/17 13/26/17
f 22/55/28 5/56/28 7/23/28
f 5/56/29 22/55/29 6/27/29
f 44/60/30 43/52/30 36/7/30
f 42/61/30 44/60/30 40/49/30
f 44/60/30 36/7/30 40/49/30
f 45/58/51 47/53/51 48/59/51
f 48/59/52 44/60/52 46/57/52
f 38/63/32 45/89/32 46/64/32
f 44/60/33 48/59/33 43/52/33
f 50/14/44 51/13/44 49/66/44
f 51/90/35 37/67/35 52/69/35
f 16/19/36 49/66/36 41/20/36
f 49/66/37 16/19/37 21/70/37
f 53/79/53 57/71/53 55/73/53
f 56/74/54 38/8/54 42/61/54
f 55/91/55 56/74/55 42/61/55
f 53/88/56 55/91/56 37/15/56
f 55/91/57 42/61/57 41/20/57
f 37/15/58 55/91/58 41/20/58
f 58/75/40 60/92/40 59/76/40
f 58/75/59 54/80/59 56/78/59
f 57/71/42 53/79/42 58/75/42
f 55/91/43 59/81/43 56/74/43
