# Blender v2.60 (sub 0) OBJ File: 'pyramid.blend'
# www.blender.org
mtllib pyramid.mtl
o Cube
v 1.000000 -1.000000 -1.000000
v 1.000000 -1.000000 1.000000
v -1.000000 -1.000000 1.000000
v -1.000000 -1.000000 -1.000000
v -0.000000 1.000000 0.000000
vt 0.500000 0.809017
vt 0.190983 0.500000
vt 0.500000 0.190983
vt 0.809017 0.500000
vt 0.000000 0.999999
vt 0.000000 0.000000
vt 1.000000 0.000000
vt 1.000000 1.000000
vn 0.000000 -1.000000 0.000000
vn 0.894427 0.447214 0.000000
vn -0.000000 0.447214 0.894427
vn -0.894427 0.447213 -0.000000
vn 0.000000 0.447214 -0.894427
usemtl pyramid_UV_mask.ppm
s off
f 1/1/1 2/2/1 3/3/1
f 1/1/1 3/3/1 4/4/1
f 1/1/2 5/5/2 2/2/2
f 2/2/3 5/6/3 3/3/3
f 3/3/4 5/7/4 4/4/4
f 5/8/5 1/1/5 4/4/5
